<?xml version="1.0" encoding="UTF-8" standalone="no"?>
<!-- Created with Inkscape (http://www.inkscape.org/) -->

<svg
   xmlns:dc="http://purl.org/dc/elements/1.1/"
   xmlns:cc="http://creativecommons.org/ns#"
   xmlns:rdf="http://www.w3.org/1999/02/22-rdf-syntax-ns#"
   xmlns:svg="http://www.w3.org/2000/svg"
   xmlns="http://www.w3.org/2000/svg"
   xmlns:sodipodi="http://sodipodi.sourceforge.net/DTD/sodipodi-0.dtd"
   xmlns:inkscape="http://www.inkscape.org/namespaces/inkscape"
   width="32mm"
   height="32mm"
   viewBox="0 0 32 32"
   version="1.1"
   id="svg8"
   inkscape:version="0.92.4 (5da689c313, 2019-01-14)"
   sodipodi:docname="NewProject.svg">
  <defs
     id="defs2" />
  <sodipodi:namedview
     id="base"
     pagecolor="#ffffff"
     bordercolor="#666666"
     borderopacity="1.0"
     inkscape:pageopacity="0.0"
     inkscape:pageshadow="2"
     inkscape:zoom="3.959798"
     inkscape:cx="57.860772"
     inkscape:cy="50.371219"
     inkscape:document-units="mm"
     inkscape:current-layer="layer1"
     showgrid="false"
     inkscape:snap-bbox="true"
     inkscape:snap-page="true"
     inkscape:snap-object-midpoints="true"
     inkscape:window-width="1600"
     inkscape:window-height="837"
     inkscape:window-x="-8"
     inkscape:window-y="-8"
     inkscape:window-maximized="1"
     inkscape:snap-global="true"
     showguides="true"
     inkscape:guide-bbox="true"
     inkscape:snap-midpoints="true"
     inkscape:snap-intersection-paths="true"
     inkscape:object-paths="true">
    <sodipodi:guide
       position="0,31.999999"
       orientation="0,1"
       id="guide874"
       inkscape:locked="false" />
  </sodipodi:namedview>
  <metadata
     id="metadata5">
    <rdf:RDF>
      <cc:Work
         rdf:about="">
        <dc:format>image/svg+xml</dc:format>
        <dc:type
           rdf:resource="http://purl.org/dc/dcmitype/StillImage" />
        <dc:title></dc:title>
      </cc:Work>
    </rdf:RDF>
  </metadata>
  <g
     inkscape:label="Layer 1"
     inkscape:groupmode="layer"
     id="layer1"
     transform="translate(0,-265)">
    <path
       style="opacity:1;fill:#000000;fill-opacity:1;fill-rule:nonzero;stroke:none;stroke-width:1.44954717;stroke-linecap:butt;stroke-linejoin:round;stroke-miterlimit:4;stroke-dasharray:none;stroke-dashoffset:0;stroke-opacity:1"
       d="M 43.214844 39.328125 A 20.546036 20.546036 0 0 0 22.667969 59.873047 A 20.546036 20.546036 0 0 0 43.214844 80.419922 A 20.546036 20.546036 0 0 0 63.759766 59.873047 A 20.546036 20.546036 0 0 0 43.214844 39.328125 z M 43.214844 41.03125 A 18.842577 18.842577 0 0 1 62.056641 59.873047 A 18.842577 18.842577 0 0 1 43.214844 78.716797 A 18.842577 18.842577 0 0 1 24.371094 59.873047 A 18.842577 18.842577 0 0 1 43.214844 41.03125 z "
       transform="matrix(0.26458333,0,0,0.26458333,0,265)"
       id="path890" />
    <path
       style="color:#000000;font-style:normal;font-variant:normal;font-weight:normal;font-stretch:normal;font-size:medium;line-height:normal;font-family:sans-serif;font-variant-ligatures:normal;font-variant-position:normal;font-variant-caps:normal;font-variant-numeric:normal;font-variant-alternates:normal;font-feature-settings:normal;text-indent:0;text-align:start;text-decoration:none;text-decoration-line:none;text-decoration-style:solid;text-decoration-color:#000000;letter-spacing:normal;word-spacing:normal;text-transform:none;writing-mode:lr-tb;direction:ltr;text-orientation:mixed;dominant-baseline:auto;baseline-shift:baseline;text-anchor:start;white-space:normal;shape-padding:0;clip-rule:nonzero;display:inline;overflow:visible;visibility:visible;opacity:1;isolation:auto;mix-blend-mode:normal;color-interpolation:sRGB;color-interpolation-filters:linearRGB;solid-color:#000000;solid-opacity:1;vector-effect:none;fill:#000000;fill-opacity:1;fill-rule:nonzero;stroke:none;stroke-width:1.08704233;stroke-linecap:butt;stroke-linejoin:round;stroke-miterlimit:4;stroke-dasharray:none;stroke-dashoffset:0;stroke-opacity:1;color-rendering:auto;image-rendering:auto;shape-rendering:auto;text-rendering:auto;enable-background:accumulate"
       d="m 16,265.04883 c -8.803264,0 -15.95117188,7.14791 -15.95117188,15.95117 0,8.80326 7.14790788,15.95117 15.95117188,15.95117 8.803264,0 15.951172,-7.14791 15.951172,-15.95117 0,-8.80326 -7.147908,-15.95117 -15.951172,-15.95117 z m 0,1.08594 c 8.215783,0 14.865234,6.64945 14.865234,14.86523 0,8.21578 -6.649451,14.86523 -14.865234,14.86523 -8.2157827,0 -14.8652344,-6.64945 -14.8652344,-14.86523 0,-8.21578 6.6494517,-14.86523 14.8652344,-14.86523 z"
       id="path890-9"
       inkscape:connector-curvature="0" />
    <path
       style="opacity:1;fill:#000000;fill-opacity:1;fill-rule:nonzero;stroke:none;stroke-width:1.02808177;stroke-linecap:butt;stroke-linejoin:round;stroke-miterlimit:4;stroke-dasharray:none;stroke-dashoffset:0;stroke-opacity:1"
       d="m 42.929688,22.402344 -3.707032,12.945312 c -2.628094,0.428567 -5.170258,1.276615 -7.529297,2.511719 l -10.734375,-8.132813 4.613282,12.660157 c -1.868071,1.890061 -3.420987,4.06744 -4.59961,6.449219 L 7.4902344,48.564453 18.675781,56.103516 c -0.202367,1.24655 -0.309448,2.506708 -0.320312,3.769531 0.0074,0.19998 0.01712,0.399865 0.0293,0.599609 h 1.71875 c -0.0098,-0.199768 -0.01692,-0.399655 -0.02148,-0.599609 -1.3e-5,-12.775905 10.356908,-23.132826 23.132813,-23.132813 12.775905,-1.2e-5 23.132825,10.356908 23.132812,23.132813 -0.0072,0.199988 -0.01694,0.399874 -0.0293,0.599609 h 1.732422 c 0.0096,-0.199776 0.01674,-0.39966 0.02148,-0.599609 -9.68e-4,-1.394179 -0.119224,-2.785804 -0.353516,-4.160156 l 11.044922,-7.689453 -13.453125,0.474609 c -1.22372,-2.362884 -2.818892,-4.513959 -4.724609,-6.371094 -0.01885,-0.01826 -0.03773,-0.03649 -0.05664,-0.05469 0.01891,0.01755 0.03779,0.03513 0.05664,0.05273 l 4.423828,-12.732422 -10.623047,8.304688 c -2.37212,-1.19287 -4.920033,-1.997995 -7.546875,-2.384766 -0.606807,-0.08632 -1.216599,-0.150163 -1.828125,-0.191406 0.611526,0.04124 1.221318,0.105088 1.828125,0.191406 z m 25.121093,38.070312 c -0.03112,1.061899 -0.130283,2.120711 -0.296875,3.169922 l 11.185547,7.539063 -13.486328,-0.269532 c -1.178207,2.380952 -2.730449,4.557652 -4.597656,6.447266 L 65.46875,90.021484 54.734375,81.886719 c -2.359039,1.235104 -4.901203,2.083152 -7.529297,2.511719 L 43.498047,97.34375 39.589844,84.435547 C 36.963002,84.048776 34.415089,83.243651 32.042969,82.050781 L 21.419922,90.355469 25.841797,77.619141 C 23.93608,75.762006 22.340908,73.610931 21.117188,71.248047 L 7.6660156,71.722656 18.708984,64.033203 C 18.51559,62.855674 18.407238,61.665749 18.384766,60.472656 H 2.2382812 c 0,0 1.4569173,17.577894 5.6542969,25.03125 6.6984059,11.894469 17.3875679,22.092634 29.4804689,28.425784 7.102859,3.71982 15.626085,5.69184 23.585428,4.72408 16.138438,-1.96224 33.170805,-8.75413 44.133325,-20.759239 8.95079,-9.802052 13.61523,-37.421875 13.61523,-37.421875 z m -1.732422,0 H 20.103516 c 0.324949,12.532803 10.574315,22.525783 23.111328,22.533203 12.533977,-0.01165 22.778648,-10.003431 23.103515,-22.533203 z m -26.689453,23.96875 c 0.601672,0.08463 1.206245,0.147172 1.8125,0.1875 -0.606255,-0.04033 -1.210828,-0.10287 -1.8125,-0.1875 z"
       id="path916"
       inkscape:connector-curvature="0"
       sodipodi:nodetypes="cccccccccccccccccccccccccccccccccccccccccccccccssssccccccccc"
       transform="matrix(0.26458333,0,0,0.26458333,0,265)" />
    <path
       style="color:#000000;font-style:normal;font-variant:normal;font-weight:normal;font-stretch:normal;font-size:medium;line-height:normal;font-family:sans-serif;font-variant-ligatures:normal;font-variant-position:normal;font-variant-caps:normal;font-variant-numeric:normal;font-variant-alternates:normal;font-feature-settings:normal;text-indent:0;text-align:start;text-decoration:none;text-decoration-line:none;text-decoration-style:solid;text-decoration-color:#000000;letter-spacing:normal;word-spacing:normal;text-transform:none;writing-mode:lr-tb;direction:ltr;text-orientation:mixed;dominant-baseline:auto;baseline-shift:baseline;text-anchor:start;white-space:normal;shape-padding:0;clip-rule:nonzero;display:inline;overflow:visible;visibility:visible;opacity:1;isolation:auto;mix-blend-mode:normal;color-interpolation:sRGB;color-interpolation-filters:linearRGB;solid-color:#000000;solid-opacity:1;vector-effect:none;fill:#000000;fill-opacity:1;fill-rule:nonzero;stroke:none;stroke-width:0.40000001;stroke-linecap:butt;stroke-linejoin:round;stroke-miterlimit:4;stroke-dasharray:none;stroke-dashoffset:0;stroke-opacity:1;color-rendering:auto;image-rendering:auto;shape-rendering:auto;text-rendering:auto;enable-background:accumulate"
       d="m 22.050781,270.40625 v 4.74414 h 0.398438 v -4.74414 z"
       id="path2321"
       inkscape:connector-curvature="0" />
    <path
       style="color:#000000;font-style:normal;font-variant:normal;font-weight:normal;font-stretch:normal;font-size:medium;line-height:normal;font-family:sans-serif;font-variant-ligatures:normal;font-variant-position:normal;font-variant-caps:normal;font-variant-numeric:normal;font-variant-alternates:normal;font-feature-settings:normal;text-indent:0;text-align:start;text-decoration:none;text-decoration-line:none;text-decoration-style:solid;text-decoration-color:#000000;letter-spacing:normal;word-spacing:normal;text-transform:none;writing-mode:lr-tb;direction:ltr;text-orientation:mixed;dominant-baseline:auto;baseline-shift:baseline;text-anchor:start;white-space:normal;shape-padding:0;clip-rule:nonzero;display:inline;overflow:visible;visibility:visible;opacity:1;isolation:auto;mix-blend-mode:normal;color-interpolation:sRGB;color-interpolation-filters:linearRGB;solid-color:#000000;solid-opacity:1;vector-effect:none;fill:#000000;fill-opacity:1;fill-rule:nonzero;stroke:none;stroke-width:0.40000001;stroke-linecap:butt;stroke-linejoin:round;stroke-miterlimit:4;stroke-dasharray:none;stroke-dashoffset:0;stroke-opacity:1;color-rendering:auto;image-rendering:auto;shape-rendering:auto;text-rendering:auto;enable-background:accumulate"
       d="m 19.878906,272.57812 v 0.4004 h 4.744141 v -0.4004 z"
       id="path2323"
       inkscape:connector-curvature="0" />
  </g>
</svg>
